<svg xmlns="http://www.w3.org/2000/svg" width="890" height="802"><path d="M567.109 801.456c-32.308-2.151-49.199-13.047-57.874-25.14 1.663-29.439 6.48-66.105 20.019-99.382 7.762-19.056 18.777-36.306 32.289-48.987 14.774-15.115 28.425-26.745 42.18-36.336 27.15-18.814 50.968-27.01 58.506-29.893l37.837-13.686c16.489-5.283 36.462-12.929 53.51-22.277 34.951-17.882 63.921-38.061 63.875-38.068.059.007-30.916 16.07-66.905 29.402-18.159 7.243-36.712 12.004-54.03 15.755-17.041 4.101-31.434 8.277-39.36 11.145-14.821 5.79-103.618 32.375-148.973 121.491-10.259 22.762-16.693 46.309-20.86 68.373-10.252-5.415-23.016-15.894-26.492-35.287-6.06-33.79-2.688-135.183 95.513-191.507 98.209-56.318 207.853-45.062 260.325-61.579 52.466-16.517 73.319-54.071 73.319-54.071s-43.724 382.258-322.879 410.047z"/><path d="M390.945 726.902c39.12-2.737 59.571-16.606 70.075-31.996-2.013-37.468-7.846-84.134-24.239-126.486-9.398-24.253-22.735-46.209-39.096-62.347-17.888-19.238-34.418-34.04-51.072-46.246-32.873-23.946-61.713-34.377-70.84-38.046l-45.813-17.418c-19.965-6.724-44.148-16.455-64.79-28.353-42.32-22.758-77.397-48.441-77.342-48.45-.07.009 37.434 20.452 81.01 37.42 21.988 9.218 44.452 15.279 65.42 20.052 20.634 5.22 38.061 10.534 47.658 14.185 17.945 7.368 125.462 41.204 180.378 154.625 12.421 28.97 20.212 58.938 25.257 87.019 12.414-6.891 27.868-20.227 32.078-44.91 7.337-43.006 3.254-172.051-115.649-243.736-118.913-71.677-251.671-57.351-315.205-78.373C25.25 252.82 0 205.023 0 205.023s52.942 486.512 390.945 521.879z"/><path d="M598.09 469.95c-23.805 19.983-42.044 24.31-55.263 22.464-16.294-19.534-34.673-45.676-44.96-75.454-5.885-17.057-8.431-35.133-6.526-51.994 1.341-19.22 3.966-35.516 7.872-50.602 7.779-29.707 19.529-50.564 23.076-57.346l18.272-33.549c8.367-14.195 17.762-32.168 24.108-49.277 13.772-34.273 22.011-66.036 21.975-66.01.045-.034-12.033 30.473-29.226 62.583-8.369 16.524-18.484 31.754-28.337 45.535-9.452 13.819-17.014 25.936-20.84 32.965-6.903 13.41-53.065 88.681-31.858 174.433 6.34 21.027 15.813 40.021 25.988 56.589-10.359 3.378-25.472 5.242-39.395-4.608-24.258-17.161-82.02-82.883-46.931-182.987 35.097-100.105 118.231-165.441 145.03-210.426S580.147 0 580.147 0s196.137 268.255 17.943 469.95z"/></svg>