<svg xmlns="http://www.w3.org/2000/svg" viewBox="0 0 890 801.5"><path d="M567.1 801.5c-32.3-2.2-49.2-13-57.9-25.1 1.7-29.4 6.5-66.1 20-99.4 7.8-19.1 18.8-36.3 32.3-49 14.8-15.1 28.4-26.7 42.2-36.3 27.2-18.8 51-27 58.5-29.9l37.8-13.7c16.5-5.3 36.5-12.9 53.5-22.3 35-17.9 63.9-38.1 63.9-38.1.1 0-30.9 16.1-66.9 29.4-18.2 7.2-36.7 12-54 15.8-17 4.1-31.4 8.3-39.4 11.1-14.8 5.8-103.6 32.4-149 121.5-10.3 22.8-16.7 46.3-20.9 68.4-10.3-5.4-23-15.9-26.5-35.3-6.1-33.8-2.7-135.2 95.5-191.5 98.2-56.3 207.9-45.1 260.3-61.6 52.5-16.5 73.3-54.1 73.3-54.1s-43.5 382.3-322.7 410.1z"/><path d="M390.9 726.9c39.1-2.7 59.6-16.6 70.1-32-2-37.5-7.8-84.1-24.2-126.5-9.4-24.3-22.7-46.2-39.1-62.3-17.9-19.2-34.4-34-51.1-46.2-32.9-23.9-61.7-34.4-70.8-38L230 404.4c-20-6.7-44.1-16.5-64.8-28.4-42.3-22.8-77.4-48.4-77.3-48.5-.1 0 37.4 20.5 81 37.4 22 9.2 44.5 15.3 65.4 20.1 20.6 5.2 38.1 10.5 47.7 14.2 17.9 7.4 125.5 41.2 180.4 154.6 12.4 29 20.2 58.9 25.3 87 12.4-6.9 27.9-20.2 32.1-44.9 7.3-43 3.3-172.1-115.6-243.7-118.9-71.7-251.7-57.4-315.2-78.4C25.2 252.8 0 205 0 205s52.9 486.5 390.9 521.9z"/><path d="M598.1 470c-23.8 20-42 24.3-55.3 22.5-16.3-19.5-34.7-45.7-45-75.5-5.9-17.1-8.4-35.1-6.5-52 1.3-19.2 4-35.5 7.9-50.6 7.8-29.7 19.5-50.6 23.1-57.3l18.3-33.5c8.4-14.2 17.8-32.2 24.1-49.3 13.8-34.3 22-66 22-66s-12 30.5-29.2 62.6c-8.4 16.5-18.5 31.8-28.3 45.5-9.5 13.8-17 25.9-20.8 33-6.9 13.4-53.1 88.7-31.9 174.4 6.3 21 15.8 40 26 56.6-10.4 3.4-25.5 5.2-39.4-4.6-24.3-17.2-82-82.9-46.9-183s118.2-165.4 145-210.4S580.1 0 580.1 0s196.2 268.3 18 470z"/></svg>